<mxfile host="Electron" modified="2023-08-14T21:06:57.665Z" agent="Mozilla/5.0 (Macintosh; Intel Mac OS X 10_15_7) AppleWebKit/537.36 (KHTML, like Gecko) draw.io/21.6.8 Chrome/114.0.5735.289 Electron/25.5.0 Safari/537.36" etag="dysaJBUsf49PjITlhx6y" version="21.6.8" type="device">
  <diagram name="Page-1" id="cNk8rawfNz_4RUY2DilG">
    <mxGraphModel dx="954" dy="1074" grid="1" gridSize="10" guides="1" tooltips="1" connect="1" arrows="1" fold="1" page="0" pageScale="1" pageWidth="1169" pageHeight="827" math="0" shadow="0">
      <root>
        <mxCell id="0" />
        <mxCell id="1" parent="0" />
        <mxCell id="WeTih67nczexHxwz61cG-80" value="Output:&lt;br&gt;&lt;br&gt;List of QC derivative (fig inside)&lt;br&gt;Dict as Simple metric&lt;br&gt;Str about head positions" style="html=1;dashed=0;fontFamily=Helvetica;fontSize=12;fontColor=rgb(0, 0, 0);align=center;strokeColor=rgb(0, 0, 0);fillColor=rgb(255, 255, 255);" parent="1" vertex="1">
          <mxGeometry x="640" y="600" width="200" height="80" as="geometry" />
        </mxCell>
        <mxCell id="i3P34daP5RMbJGs39lf5-1" value="Input:&lt;br&gt;&lt;br&gt;Raw data&lt;br&gt;Config parameters" style="html=1;" parent="1" vertex="1">
          <mxGeometry x="40" y="120" width="200" height="80" as="geometry" />
        </mxCell>
        <mxCell id="i3P34daP5RMbJGs39lf5-105" value="" style="edgeStyle=orthogonalEdgeStyle;rounded=0;orthogonalLoop=1;jettySize=auto;html=1;fontFamily=Courier New;fontSize=12;" parent="1" source="i3P34daP5RMbJGs39lf5-99" target="i3P34daP5RMbJGs39lf5-104" edge="1">
          <mxGeometry relative="1" as="geometry" />
        </mxCell>
        <mxCell id="i3P34daP5RMbJGs39lf5-106" value="" style="edgeStyle=orthogonalEdgeStyle;rounded=0;orthogonalLoop=1;jettySize=auto;html=1;fontFamily=Courier New;fontSize=12;" parent="1" source="i3P34daP5RMbJGs39lf5-102" target="WeTih67nczexHxwz61cG-80" edge="1">
          <mxGeometry relative="1" as="geometry" />
        </mxCell>
        <mxCell id="i3P34daP5RMbJGs39lf5-107" value="" style="edgeStyle=orthogonalEdgeStyle;rounded=0;orthogonalLoop=1;jettySize=auto;html=1;fontFamily=Courier New;fontSize=12;" parent="1" source="i3P34daP5RMbJGs39lf5-101" edge="1">
          <mxGeometry relative="1" as="geometry">
            <mxPoint x="440" y="730" as="targetPoint" />
          </mxGeometry>
        </mxCell>
        <mxCell id="i3P34daP5RMbJGs39lf5-140" value="Output:&lt;br&gt;&lt;br&gt;Empty list&lt;br&gt;Empty dict as Simple metric&lt;br&gt;Str about no head positions" style="html=1;dashed=0;fontFamily=Helvetica;fontSize=12;fontColor=rgb(0, 0, 0);align=center;strokeColor=rgb(0, 0, 0);fillColor=rgb(255, 255, 255);" parent="1" vertex="1">
          <mxGeometry x="960" y="280" width="200" height="80" as="geometry" />
        </mxCell>
        <mxCell id="i3P34daP5RMbJGs39lf5-142" value="" style="shape=sumEllipse;perimeter=ellipsePerimeter;whiteSpace=wrap;html=1;backgroundOutline=1;fontFamily=Courier New;fontSize=12;" parent="1" vertex="1">
          <mxGeometry x="745" y="410" width="30" height="30" as="geometry" />
        </mxCell>
        <mxCell id="i3P34daP5RMbJGs39lf5-132" value="" style="edgeStyle=orthogonalEdgeStyle;rounded=0;orthogonalLoop=1;jettySize=auto;html=1;fontFamily=Courier New;fontSize=12;" parent="1" target="i3P34daP5RMbJGs39lf5-128" edge="1">
          <mxGeometry relative="1" as="geometry">
            <mxPoint x="440" y="70" as="sourcePoint" />
          </mxGeometry>
        </mxCell>
        <mxCell id="i3P34daP5RMbJGs39lf5-145" style="edgeStyle=orthogonalEdgeStyle;rounded=0;orthogonalLoop=1;jettySize=auto;html=1;entryX=0.5;entryY=0;entryDx=0;entryDy=0;fontFamily=Courier New;fontSize=12;" parent="1" source="i3P34daP5RMbJGs39lf5-128" target="i3P34daP5RMbJGs39lf5-137" edge="1">
          <mxGeometry relative="1" as="geometry" />
        </mxCell>
        <mxCell id="i3P34daP5RMbJGs39lf5-146" value="" style="edgeStyle=orthogonalEdgeStyle;rounded=0;orthogonalLoop=1;jettySize=auto;html=1;fontFamily=Courier New;fontSize=12;" parent="1" source="i3P34daP5RMbJGs39lf5-138" target="i3P34daP5RMbJGs39lf5-140" edge="1">
          <mxGeometry relative="1" as="geometry" />
        </mxCell>
        <mxCell id="i3P34daP5RMbJGs39lf5-147" value="" style="edgeStyle=orthogonalEdgeStyle;rounded=0;orthogonalLoop=1;jettySize=auto;html=1;fontFamily=Courier New;fontSize=12;" parent="1" source="i3P34daP5RMbJGs39lf5-137" target="i3P34daP5RMbJGs39lf5-142" edge="1">
          <mxGeometry relative="1" as="geometry" />
        </mxCell>
        <mxCell id="i3P34daP5RMbJGs39lf5-134" value="" style="edgeStyle=orthogonalEdgeStyle;rounded=0;orthogonalLoop=1;jettySize=auto;html=1;fontFamily=Courier New;fontSize=12;" parent="1" source="i3P34daP5RMbJGs39lf5-1" target="i3P34daP5RMbJGs39lf5-131" edge="1">
          <mxGeometry relative="1" as="geometry" />
        </mxCell>
        <mxCell id="i3P34daP5RMbJGs39lf5-152" value="" style="group" parent="1" vertex="1" connectable="0">
          <mxGeometry x="310" y="120" width="250" height="90" as="geometry" />
        </mxCell>
        <mxCell id="i3P34daP5RMbJGs39lf5-128" value="&lt;div style=&quot;border-color: var(--border-color);&quot;&gt;Compute&amp;nbsp;&lt;/div&gt;&lt;div style=&quot;border-color: var(--border-color);&quot;&gt;head positions (x, y, z)&amp;nbsp;&lt;/div&gt;&lt;div style=&quot;border-color: var(--border-color);&quot;&gt;and rotations (q1, q2, q3)&lt;/div&gt;&lt;br style=&quot;border-color: var(--border-color);&quot;&gt;&lt;div style=&quot;border-color: var(--border-color);&quot;&gt;&lt;font style=&quot;border-color: var(--border-color);&quot; face=&quot;Courier New&quot;&gt;&lt;b style=&quot;border-color: var(--border-color);&quot;&gt;&lt;i style=&quot;border-color: var(--border-color);&quot;&gt;get_head_positions()&lt;/i&gt;&lt;/b&gt;&lt;/font&gt;&lt;/div&gt;" style="html=1;align=center;verticalAlign=middle;rounded=1;absoluteArcSize=1;arcSize=25;dashed=0;fontFamily=Helvetica;fontSize=12;whiteSpace=wrap;container=0;noLabel=0;imageAlign=center;" parent="i3P34daP5RMbJGs39lf5-152" vertex="1">
          <mxGeometry x="10" width="240" height="80" as="geometry" />
        </mxCell>
        <mxCell id="i3P34daP5RMbJGs39lf5-129" value="pinOut 2" style="fontStyle=0;labelPosition=center;verticalLabelPosition=bottom;align=center;verticalAlign=top;spacingLeft=2;fontFamily=Helvetica;fontSize=12;resizable=0;container=0;noLabel=1;" parent="i3P34daP5RMbJGs39lf5-152" vertex="1">
          <mxGeometry x="115" y="80" width="30" height="10" as="geometry" />
        </mxCell>
        <mxCell id="i3P34daP5RMbJGs39lf5-131" value="pinIn 2" style="fontStyle=0;labelPosition=left;verticalLabelPosition=middle;align=right;verticalAlign=middle;spacingLeft=2;fontFamily=Helvetica;fontSize=12;flipH=0;resizable=0;container=0;noLabel=1;" parent="i3P34daP5RMbJGs39lf5-152" vertex="1">
          <mxGeometry y="25" width="10" height="30" as="geometry" />
        </mxCell>
        <mxCell id="i3P34daP5RMbJGs39lf5-154" value="" style="group" parent="1" vertex="1" connectable="0">
          <mxGeometry x="640" y="280" width="250" height="80" as="geometry" />
        </mxCell>
        <mxCell id="i3P34daP5RMbJGs39lf5-137" value="exception" style="html=1;align=center;verticalAlign=middle;rounded=1;absoluteArcSize=1;arcSize=25;dashed=0;fontFamily=Helvetica;fontSize=12;whiteSpace=wrap;container=0;noLabel=0;imageAlign=center;" parent="i3P34daP5RMbJGs39lf5-154" vertex="1">
          <mxGeometry width="240" height="80" as="geometry" />
        </mxCell>
        <mxCell id="i3P34daP5RMbJGs39lf5-138" value="pinOut 1" style="fontStyle=0;labelPosition=right;verticalLabelPosition=middle;align=left;verticalAlign=middle;spacingLeft=2;fontFamily=Helvetica;fontSize=12;resizable=0;container=0;noLabel=1;" parent="i3P34daP5RMbJGs39lf5-154" vertex="1">
          <mxGeometry x="240" y="25" width="10" height="30" as="geometry" />
        </mxCell>
        <mxCell id="i3P34daP5RMbJGs39lf5-155" value="" style="group" parent="1" vertex="1" connectable="0">
          <mxGeometry x="320" y="440" width="240" height="90" as="geometry" />
        </mxCell>
        <mxCell id="i3P34daP5RMbJGs39lf5-98" value="&lt;div&gt;Calculate the standard deviation of the head movement over time&lt;/div&gt;&lt;br&gt;&lt;div&gt;&lt;font face=&quot;Courier New&quot;&gt;&lt;b&gt;&lt;i&gt;compute_head_pos_std_and_&lt;/i&gt;&lt;/b&gt;&lt;/font&gt;&lt;/div&gt;&lt;div&gt;&lt;b style=&quot;font-family: &amp;quot;Courier New&amp;quot;; background-color: initial;&quot;&gt;&lt;i&gt;max_rotation_movement()&lt;/i&gt;&lt;/b&gt;&lt;br&gt;&lt;/div&gt;" style="html=1;align=center;verticalAlign=middle;rounded=1;absoluteArcSize=1;arcSize=25;dashed=0;fontFamily=Helvetica;fontSize=12;whiteSpace=wrap;container=0;noLabel=0;imageAlign=center;" parent="i3P34daP5RMbJGs39lf5-155" vertex="1">
          <mxGeometry width="240" height="80" as="geometry" />
        </mxCell>
        <mxCell id="i3P34daP5RMbJGs39lf5-99" value="pinOut 2" style="fontStyle=0;labelPosition=center;verticalLabelPosition=bottom;align=center;verticalAlign=top;spacingLeft=2;fontFamily=Helvetica;fontSize=12;resizable=0;container=0;noLabel=1;" parent="i3P34daP5RMbJGs39lf5-155" vertex="1">
          <mxGeometry x="105" y="80" width="30" height="10" as="geometry" />
        </mxCell>
        <mxCell id="i3P34daP5RMbJGs39lf5-156" value="" style="group" parent="1" vertex="1" connectable="0">
          <mxGeometry x="320" y="590" width="250" height="90" as="geometry" />
        </mxCell>
        <mxCell id="i3P34daP5RMbJGs39lf5-101" value="&lt;div&gt;Save std of head positions and rotations in dictionary&lt;/div&gt;&lt;br&gt;&lt;font face=&quot;Courier New&quot;&gt;&lt;b&gt;&lt;i&gt;make_simple_metric_head()&lt;/i&gt;&lt;/b&gt;&lt;/font&gt;" style="html=1;align=center;verticalAlign=middle;rounded=1;absoluteArcSize=1;arcSize=25;dashed=0;fontFamily=Helvetica;fontSize=12;whiteSpace=wrap;container=0;noLabel=0;imageAlign=center;" parent="i3P34daP5RMbJGs39lf5-156" vertex="1">
          <mxGeometry y="10" width="240" height="80" as="geometry" />
        </mxCell>
        <mxCell id="i3P34daP5RMbJGs39lf5-102" value="pinOut 1" style="fontStyle=0;labelPosition=right;verticalLabelPosition=middle;align=left;verticalAlign=middle;spacingLeft=2;fontFamily=Helvetica;fontSize=12;resizable=0;container=0;noLabel=1;" parent="i3P34daP5RMbJGs39lf5-156" vertex="1">
          <mxGeometry x="240" y="35" width="10" height="30" as="geometry" />
        </mxCell>
        <mxCell id="i3P34daP5RMbJGs39lf5-104" value="pinIn 1" style="fontStyle=0;labelPosition=center;verticalLabelPosition=top;align=center;verticalAlign=bottom;spacingLeft=2;fontFamily=Helvetica;fontSize=12;resizable=0;container=0;noLabel=1;" parent="i3P34daP5RMbJGs39lf5-156" vertex="1">
          <mxGeometry x="105" width="30" height="10" as="geometry" />
        </mxCell>
        <mxCell id="_5bZpyrAPtBTRgoMevDu-9" value="" style="group;flipH=1;" parent="1" vertex="1" connectable="0">
          <mxGeometry x="320" y="280" width="250" height="90" as="geometry" />
        </mxCell>
        <mxCell id="_5bZpyrAPtBTRgoMevDu-10" value="&lt;div style=&quot;border-color: var(--border-color);&quot;&gt;Plot head positions and rotations&lt;/div&gt;&lt;br style=&quot;border-color: var(--border-color);&quot;&gt;&lt;font style=&quot;border-color: var(--border-color);&quot; face=&quot;Courier New&quot;&gt;&lt;b style=&quot;border-color: var(--border-color);&quot;&gt;&lt;i style=&quot;border-color: var(--border-color);&quot;&gt;make_head_pos_plot()&lt;/i&gt;&lt;/b&gt;&lt;/font&gt;" style="html=1;align=center;verticalAlign=middle;rounded=1;absoluteArcSize=1;arcSize=25;dashed=0;fontFamily=Helvetica;fontSize=12;whiteSpace=wrap;container=0;noLabel=0;imageAlign=center;" parent="_5bZpyrAPtBTRgoMevDu-9" vertex="1">
          <mxGeometry y="10" width="240" height="80" as="geometry" />
        </mxCell>
        <mxCell id="_5bZpyrAPtBTRgoMevDu-11" value="pinIn 2" style="fontStyle=0;labelPosition=left;verticalLabelPosition=middle;align=right;verticalAlign=middle;spacingLeft=2;fontFamily=Helvetica;fontSize=12;flipH=0;resizable=0;container=0;noLabel=1;" parent="_5bZpyrAPtBTRgoMevDu-9" vertex="1">
          <mxGeometry x="240" y="35" width="10" height="30" as="geometry" />
        </mxCell>
        <mxCell id="_5bZpyrAPtBTRgoMevDu-12" value="pinIn 1" style="fontStyle=0;labelPosition=center;verticalLabelPosition=top;align=center;verticalAlign=bottom;spacingLeft=2;fontFamily=Helvetica;fontSize=12;resizable=0;container=0;noLabel=1;" parent="_5bZpyrAPtBTRgoMevDu-9" vertex="1">
          <mxGeometry x="105" width="30" height="10" as="geometry" />
        </mxCell>
        <mxCell id="_5bZpyrAPtBTRgoMevDu-13" value="" style="edgeStyle=orthogonalEdgeStyle;rounded=0;orthogonalLoop=1;jettySize=auto;html=1;" parent="1" source="i3P34daP5RMbJGs39lf5-129" target="_5bZpyrAPtBTRgoMevDu-12" edge="1">
          <mxGeometry relative="1" as="geometry" />
        </mxCell>
        <mxCell id="_5bZpyrAPtBTRgoMevDu-14" value="" style="edgeStyle=orthogonalEdgeStyle;rounded=0;orthogonalLoop=1;jettySize=auto;html=1;" parent="1" source="_5bZpyrAPtBTRgoMevDu-10" target="i3P34daP5RMbJGs39lf5-98" edge="1">
          <mxGeometry relative="1" as="geometry" />
        </mxCell>
        <mxCell id="_5bZpyrAPtBTRgoMevDu-15" style="edgeStyle=orthogonalEdgeStyle;rounded=0;orthogonalLoop=1;jettySize=auto;html=1;entryX=0.5;entryY=0;entryDx=0;entryDy=0;" parent="1" source="_5bZpyrAPtBTRgoMevDu-11" target="WeTih67nczexHxwz61cG-80" edge="1">
          <mxGeometry relative="1" as="geometry">
            <Array as="points">
              <mxPoint x="600" y="330" />
              <mxPoint x="600" y="560" />
              <mxPoint x="740" y="560" />
            </Array>
          </mxGeometry>
        </mxCell>
        <mxCell id="n51BtK7npl0kcJrsYIU--1" value="" style="ellipse;fillColor=strokeColor;html=1;" parent="1" vertex="1">
          <mxGeometry x="425" y="40" width="30" height="30" as="geometry" />
        </mxCell>
        <mxCell id="n51BtK7npl0kcJrsYIU--2" value="" style="ellipse;html=1;shape=endState;fillColor=strokeColor;" parent="1" vertex="1">
          <mxGeometry x="425" y="730" width="30" height="30" as="geometry" />
        </mxCell>
        <mxCell id="QxfsE0I3gHKvccCSWuXa-1" value="&lt;font style=&quot;font-size: 21px;&quot;&gt;Head_meg_qc()&lt;/font&gt;" style="text;html=1;align=center;verticalAlign=middle;resizable=0;points=[];autosize=1;strokeColor=none;fillColor=none;" vertex="1" parent="1">
          <mxGeometry x="355" y="-17" width="170" height="40" as="geometry" />
        </mxCell>
      </root>
    </mxGraphModel>
  </diagram>
</mxfile>
